<?xml version="1.0" encoding="UTF-8"?>
<svg version="1.1" xmlns="http://www.w3.org/2000/svg" width="626" height="626">
<path d="M0 0 C206.58 0 413.16 0 626 0 C626 206.58 626 413.16 626 626 C419.42 626 212.84 626 0 626 C0 419.42 0 212.84 0 0 Z " fill="#425EB2" transform="translate(0,0)"/>
<path d="M0 0 C1.04693388 -0.00507454 2.09386775 -0.01014909 3.1725269 -0.0153774 C4.91134291 -0.01612404 4.91134291 -0.01612404 6.68528652 -0.01688576 C7.90979454 -0.02126801 9.13430256 -0.02565027 10.39591688 -0.03016531 C13.80590789 -0.04124792 17.21585291 -0.04778336 20.62585533 -0.05234647 C24.2995194 -0.05829606 27.97316648 -0.06990768 31.64681911 -0.08063698 C40.52559546 -0.10517845 49.40437744 -0.11979208 58.28317729 -0.13269705 C60.79076345 -0.13640815 63.29834906 -0.14038146 65.80593467 -0.14444971 C81.37486708 -0.16968888 96.94380036 -0.19174394 112.51274872 -0.20417786 C116.12042716 -0.20710761 119.72810558 -0.21006926 123.33578396 -0.21308327 C124.68080883 -0.21420234 124.68080883 -0.21420234 126.05300593 -0.21534403 C140.57391032 -0.22799356 155.09469215 -0.2612098 169.61553926 -0.3028851 C184.52164044 -0.34531548 199.4276789 -0.3688743 214.33384031 -0.37409842 C222.70391143 -0.37751164 231.07379115 -0.38925591 239.44380283 -0.42220116 C246.57354076 -0.45021825 253.70304806 -0.46119387 260.83283675 -0.4500057 C264.46950348 -0.44482289 268.1056874 -0.4476802 271.74228382 -0.47247124 C275.68913761 -0.49915209 279.63533531 -0.48688996 283.58225918 -0.47098732 C284.7258548 -0.48486941 285.86945043 -0.49875149 287.04770046 -0.51305425 C294.20440308 -0.44202432 299.28955337 0.80545827 305.0782156 5.13701439 C307.2344656 7.48857689 307.2344656 7.48857689 308.5782156 9.76201439 C309.0422781 10.51740501 309.5063406 11.27279564 309.9844656 12.05107689 C311.84270278 15.59500065 312.20608651 18.37114818 312.21865749 22.31004906 C312.22436764 23.38106865 312.23007778 24.45208824 312.23596096 25.55556297 C312.23707882 26.73067436 312.23819668 27.90578575 312.23934841 29.11650658 C312.24431332 30.35415764 312.24927822 31.5918087 312.25439358 32.86696434 C312.26650442 36.26385836 312.27396117 39.66069079 312.27840424 43.05759907 C312.28133688 45.18119319 312.28544209 47.30478193 312.28990841 49.42837334 C312.30358252 56.07641409 312.31324904 62.72444253 312.3171103 69.37249637 C312.32158801 77.03932266 312.33912281 84.7059704 312.3681109 92.37274241 C312.38975326 98.30322786 312.39981598 104.23366317 312.40115142 110.16418767 C312.40219782 113.70403551 312.40807001 117.24371549 312.42597103 120.78352165 C312.44556847 124.73572055 312.44115253 128.68769781 312.43466091 132.63994408 C312.44387569 133.80695854 312.45309048 134.97397301 312.4625845 136.17635155 C312.42280838 143.9063688 311.53226703 149.74009966 306.3907156 155.82451439 C305.95372341 156.36463158 305.51673122 156.90474876 305.06649685 157.46123314 C298.09371073 163.33810003 291.62868964 163.71416961 282.85678005 163.64494896 C281.02964584 163.6543089 281.02964584 163.6543089 279.16559982 163.66385794 C275.80113264 163.6770137 272.43756388 163.67233216 269.07315207 163.65991306 C265.4384464 163.65084094 261.8038177 163.66484297 258.16912746 163.67583275 C251.05539367 163.69359959 243.94182889 163.68978622 236.82808852 163.67818218 C231.0455342 163.66914089 225.26302717 163.66792687 219.4804678 163.67227745 C218.65680385 163.67289038 217.8331399 163.67350331 216.98451644 163.67413482 C215.31114855 163.67541375 213.63778067 163.6767106 211.96441281 163.67802519 C196.28099541 163.6894256 180.59767161 163.67632574 164.91426957 163.65482372 C151.46333753 163.63695322 138.01254358 163.64005748 124.56161404 163.65849876 C108.93351341 163.679915 93.30549477 163.68832702 77.67738152 163.67604971 C76.01024216 163.67477554 74.34310279 163.67351806 72.6759634 163.67227745 C71.85574414 163.67166035 71.03552488 163.67104325 70.19045049 163.67040744 C64.41625326 163.6669568 58.64210813 163.67277672 52.86791897 163.68219566 C45.82905414 163.6934254 38.7903677 163.6903552 31.75152326 163.66907269 C28.16160438 163.65857527 24.57198269 163.65441779 20.98206615 163.6676693 C17.08776053 163.68182676 13.19393931 163.66489841 9.29965115 163.64494896 C8.16890824 163.65387185 7.03816534 163.66279473 5.8731575 163.67198801 C-2.19223603 163.59179136 -7.4874834 162.02494932 -13.6717844 156.82451439 C-19.95845669 149.3154336 -20.5078043 143.99163603 -20.45523167 134.35210228 C-20.46384724 133.07645912 -20.47246281 131.80081596 -20.48133945 130.48651695 C-20.503759 127.00289721 -20.50091139 123.51973338 -20.49201798 120.03606915 C-20.48689192 117.12115089 -20.49421376 114.20631709 -20.50149006 111.29140753 C-20.51846557 104.41149826 -20.51494724 97.53181091 -20.49820042 90.65190697 C-20.48128131 83.56883594 -20.49711545 76.48638131 -20.5294233 69.40337759 C-20.5561666 63.3079989 -20.56338249 57.21281153 -20.55490822 51.11738008 C-20.5499927 47.48303412 -20.55211923 43.84905885 -20.57269573 40.21475983 C-20.59455637 36.15989217 -20.57560115 32.10618402 -20.55288792 28.05132103 C-20.56458012 26.85678307 -20.57627232 25.6622451 -20.58831882 24.43150902 C-20.50790423 17.3677282 -19.58791507 12.58031624 -14.9217844 7.13701439 C-12.75381565 5.07842064 -12.75381565 5.07842064 -10.7342844 3.69951439 C-9.72301487 2.98988548 -9.72301487 2.98988548 -8.69131565 2.26592064 C-5.56441428 0.2710542 -3.69755108 0.00948322 0 0 Z " fill="#FBFCFC" transform="translate(160.92178440093994,303.8629856109619)"/>
<path d="M0 0 C1.04693388 -0.00507454 2.09386775 -0.01014909 3.1725269 -0.0153774 C4.91134291 -0.01612404 4.91134291 -0.01612404 6.68528652 -0.01688576 C7.90979454 -0.02126801 9.13430256 -0.02565027 10.39591688 -0.03016531 C13.80590789 -0.04124792 17.21585291 -0.04778336 20.62585533 -0.05234647 C24.2995194 -0.05829606 27.97316648 -0.06990768 31.64681911 -0.08063698 C40.52559546 -0.10517845 49.40437744 -0.11979208 58.28317729 -0.13269705 C60.79076345 -0.13640815 63.29834906 -0.14038146 65.80593467 -0.14444971 C81.37486708 -0.16968888 96.94380036 -0.19174394 112.51274872 -0.20417786 C116.12042716 -0.20710761 119.72810558 -0.21006926 123.33578396 -0.21308327 C124.68080883 -0.21420234 124.68080883 -0.21420234 126.05300593 -0.21534403 C140.57391032 -0.22799356 155.09469215 -0.2612098 169.61553926 -0.3028851 C184.52164044 -0.34531548 199.4276789 -0.3688743 214.33384031 -0.37409842 C222.70391143 -0.37751164 231.07379115 -0.38925591 239.44380283 -0.42220116 C246.57354076 -0.45021825 253.70304806 -0.46119387 260.83283675 -0.4500057 C264.46950348 -0.44482289 268.1056874 -0.4476802 271.74228382 -0.47247124 C275.68913761 -0.49915209 279.63533531 -0.48688996 283.58225918 -0.47098732 C284.7258548 -0.48486941 285.86945043 -0.49875149 287.04770046 -0.51305425 C294.20440308 -0.44202432 299.28955337 0.80545827 305.0782156 5.13701439 C307.2344656 7.48857689 307.2344656 7.48857689 308.5782156 9.76201439 C309.0422781 10.51740501 309.5063406 11.27279564 309.9844656 12.05107689 C311.84270278 15.59500065 312.20608651 18.37114818 312.21865749 22.31004906 C312.22436764 23.38106865 312.23007778 24.45208824 312.23596096 25.55556297 C312.23707882 26.73067436 312.23819668 27.90578575 312.23934841 29.11650658 C312.24431332 30.35415764 312.24927822 31.5918087 312.25439358 32.86696434 C312.26650442 36.26385836 312.27396117 39.66069079 312.27840424 43.05759907 C312.28133688 45.18119319 312.28544209 47.30478193 312.28990841 49.42837334 C312.30358252 56.07641409 312.31324904 62.72444253 312.3171103 69.37249637 C312.32158801 77.03932266 312.33912281 84.7059704 312.3681109 92.37274241 C312.38975326 98.30322786 312.39981598 104.23366317 312.40115142 110.16418767 C312.40219782 113.70403551 312.40807001 117.24371549 312.42597103 120.78352165 C312.44556847 124.73572055 312.44115253 128.68769781 312.43466091 132.63994408 C312.44387569 133.80695854 312.45309048 134.97397301 312.4625845 136.17635155 C312.42280838 143.9063688 311.53226703 149.74009966 306.3907156 155.82451439 C305.95372341 156.36463158 305.51673122 156.90474876 305.06649685 157.46123314 C298.09371073 163.33810003 291.62868964 163.71416961 282.85678005 163.64494896 C281.02964584 163.6543089 281.02964584 163.6543089 279.16559982 163.66385794 C275.80113264 163.6770137 272.43756388 163.67233216 269.07315207 163.65991306 C265.4384464 163.65084094 261.8038177 163.66484297 258.16912746 163.67583275 C251.05539367 163.69359959 243.94182889 163.68978622 236.82808852 163.67818218 C231.0455342 163.66914089 225.26302717 163.66792687 219.4804678 163.67227745 C218.65680385 163.67289038 217.8331399 163.67350331 216.98451644 163.67413482 C215.31114855 163.67541375 213.63778067 163.6767106 211.96441281 163.67802519 C196.28099541 163.6894256 180.59767161 163.67632574 164.91426957 163.65482372 C151.46333753 163.63695322 138.01254358 163.64005748 124.56161404 163.65849876 C108.93351341 163.679915 93.30549477 163.68832702 77.67738152 163.67604971 C76.01024216 163.67477554 74.34310279 163.67351806 72.6759634 163.67227745 C71.85574414 163.67166035 71.03552488 163.67104325 70.19045049 163.67040744 C64.41625326 163.6669568 58.64210813 163.67277672 52.86791897 163.68219566 C45.82905414 163.6934254 38.7903677 163.6903552 31.75152326 163.66907269 C28.16160438 163.65857527 24.57198269 163.65441779 20.98206615 163.6676693 C17.08776053 163.68182676 13.19393931 163.66489841 9.29965115 163.64494896 C8.16890824 163.65387185 7.03816534 163.66279473 5.8731575 163.67198801 C-2.19223603 163.59179136 -7.4874834 162.02494932 -13.6717844 156.82451439 C-19.95845669 149.3154336 -20.5078043 143.99163603 -20.45523167 134.35210228 C-20.46384724 133.07645912 -20.47246281 131.80081596 -20.48133945 130.48651695 C-20.503759 127.00289721 -20.50091139 123.51973338 -20.49201798 120.03606915 C-20.48689192 117.12115089 -20.49421376 114.20631709 -20.50149006 111.29140753 C-20.51846557 104.41149826 -20.51494724 97.53181091 -20.49820042 90.65190697 C-20.48128131 83.56883594 -20.49711545 76.48638131 -20.5294233 69.40337759 C-20.5561666 63.3079989 -20.56338249 57.21281153 -20.55490822 51.11738008 C-20.5499927 47.48303412 -20.55211923 43.84905885 -20.57269573 40.21475983 C-20.59455637 36.15989217 -20.57560115 32.10618402 -20.55288792 28.05132103 C-20.56458012 26.85678307 -20.57627232 25.6622451 -20.58831882 24.43150902 C-20.50790423 17.3677282 -19.58791507 12.58031624 -14.9217844 7.13701439 C-12.75381565 5.07842064 -12.75381565 5.07842064 -10.7342844 3.69951439 C-9.72301487 2.98988548 -9.72301487 2.98988548 -8.69131565 2.26592064 C-5.56441428 0.2710542 -3.69755108 0.00948322 0 0 Z M21.0782156 25.13701439 C20.57148577 26.57924545 20.11865058 28.0408858 19.7032156 29.51201439 C18.43049078 33.39227299 17.53518033 35.74373111 14.0782156 38.13701439 C11.48753832 39.28750686 8.88341215 40.32719838 6.22274685 41.30498314 C4.12956311 41.95117927 4.12956311 41.95117927 3.0782156 43.13701439 C2.96734063 45.49384235 2.92083554 47.82165074 2.91708279 50.17949486 C2.91211788 50.91609337 2.90715298 51.65269188 2.90203762 52.41161156 C2.88737979 54.85915102 2.88060787 57.30662567 2.8750906 59.75420189 C2.86934193 61.44952459 2.86358417 63.14484726 2.85781765 64.84016991 C2.84729722 68.39957038 2.84146145 71.9589482 2.83798122 75.51836205 C2.83249562 80.0840132 2.80847071 84.64936624 2.78000927 89.21492386 C2.76140401 92.71845441 2.75617842 96.22191288 2.75464535 99.72548866 C2.75161327 101.40884213 2.74356612 103.09219417 2.73046017 104.77549934 C2.71344403 107.12914637 2.71526875 109.48206163 2.72177029 111.83574486 C2.7125555 112.53404411 2.70334072 113.23234337 2.6938467 113.95180321 C2.71810581 116.74901411 2.77218881 118.68239542 4.35830593 121.03865623 C6.30446442 122.41845494 6.30446442 122.41845494 9.9532156 123.01201439 C14.28300445 124.00508523 16.36646676 125.4955231 19.0782156 129.13701439 C20.0331502 131.4823977 20.80665868 133.8113145 21.5000906 136.24638939 C21.91414297 138.12941763 21.91414297 138.12941763 23.0782156 139.13701439 C26.2339146 139.23953961 29.36787207 139.27585655 32.52412319 139.27072716 C34.03011895 139.27412549 34.03011895 139.27412549 35.56653887 139.27759248 C38.95838199 139.28396409 42.35018548 139.2831011 45.74203396 139.28227806 C48.16255146 139.28526758 50.58306848 139.28866962 53.00358486 139.29245567 C58.91237048 139.30039848 64.82114667 139.30351123 70.72993653 139.30406805 C75.5306223 139.30454246 80.33130476 139.30659341 85.13198948 139.30976868 C98.72898367 139.31857959 112.32596995 139.32318737 125.92296701 139.3224382 C126.65667707 139.32239825 127.39038713 139.32235829 128.14633083 139.32231712 C129.2482325 139.3222558 129.2482325 139.3222558 130.37239481 139.32219324 C142.28233541 139.32178664 154.19224442 139.33135854 166.10217588 139.34545549 C178.31765351 139.35980054 190.53311571 139.36672671 202.74860197 139.36586171 C209.61212278 139.3655291 216.47561048 139.36830442 223.33912373 139.37903976 C229.79127795 139.38906664 236.24338016 139.38882861 242.69553852 139.38152313 C245.06999723 139.38047211 247.44446022 139.38287052 249.81891155 139.38888359 C253.04779999 139.3965338 256.27644172 139.39200533 259.50532436 139.38425255 C260.45598984 139.38939611 261.40665532 139.39453967 262.38612884 139.3998391 C263.24640955 139.39524031 264.10669026 139.39064151 264.99304008 139.38590336 C266.11202223 139.38622941 266.11202223 139.38622941 267.25361007 139.38656205 C269.32823846 139.29016965 269.32823846 139.29016965 271.0782156 137.13701439 C271.38106157 135.70971254 271.62425079 134.2692651 271.8282156 132.82451439 C272.52375731 129.47620892 273.20733365 127.45109462 275.7657156 125.13701439 C279.36570602 122.96343527 281.93774919 122.53513616 286.0782156 122.13701439 C288.54305873 119.67217126 288.31302665 118.30121255 288.32705593 114.93819237 C288.31986538 114.21602531 288.31267483 113.49385826 288.30526638 112.74980736 C288.30570446 111.60820152 288.30570446 111.60820152 288.30615139 110.44353294 C288.30475541 107.92197423 288.28918178 105.40070914 288.2735281 102.87920189 C288.26979892 101.13328271 288.2669515 99.38736145 288.26495266 97.64143944 C288.25730871 93.04151719 288.23765373 88.44172082 288.2155447 83.84184837 C288.19510264 79.14988979 288.18595446 74.4579109 288.17587185 69.76592064 C288.15440852 60.55622985 288.12026343 51.34663258 288.0782156 42.13701439 C287.33055935 41.89467064 286.5829031 41.65232689 285.8125906 41.40263939 C284.82774685 41.06748314 283.8429031 40.73232689 282.8282156 40.38701439 C281.85368435 40.06217064 280.8791531 39.73732689 279.8750906 39.40263939 C276.86614262 38.04104841 275.19584945 36.64913947 273.0782156 34.13701439 C272.3204031 31.84795189 272.3204031 31.84795189 271.9532156 29.51201439 C271.41663578 25.91032762 271.41663578 25.91032762 269.0782156 23.13701439 C267.18854933 22.83517049 267.18854933 22.83517049 264.9958334 22.88533211 C264.13616939 22.88011661 263.27650537 22.87490112 262.39079094 22.86952758 C260.9658159 22.87621974 260.9658159 22.87621974 259.51205349 22.8830471 C258.50720189 22.87992712 257.50235029 22.87680714 256.46704865 22.87359262 C253.0782645 22.86557431 249.68965753 22.87195116 246.30087185 22.87822533 C243.88020631 22.87551717 241.45954159 22.87195723 239.03887844 22.86760521 C233.13355784 22.85940939 227.22828376 22.86064054 221.32296443 22.86643049 C216.5251602 22.8709405 211.72737022 22.87156276 206.92956448 22.86938286 C205.90672882 22.86892316 205.90672882 22.86892316 204.86322981 22.86845417 C203.47814234 22.86781475 202.09305487 22.86716632 200.7079674 22.86650899 C187.70873753 22.86080086 174.70953583 22.86737115 161.71031058 22.87810972 C150.5474497 22.88704568 139.38463041 22.88549377 128.22177029 22.8762722 C115.27022618 22.86557808 102.31870679 22.86135023 89.36715889 22.86749673 C87.9870615 22.86813385 86.60696412 22.86876259 85.22686672 22.86938286 C84.547767 22.86969141 83.86866727 22.86999996 83.16898876 22.87031786 C78.37490056 22.87204738 73.58082799 22.86912418 68.78674221 22.86442375 C62.33867215 22.85824085 55.89066233 22.86261954 49.4425993 22.87421227 C47.06975466 22.87686693 44.69690344 22.87608013 42.32406139 22.87168694 C39.09740916 22.86626174 35.87101338 22.87302867 32.64437771 22.8830471 C31.69439435 22.87858566 30.74441099 22.87412422 29.76564026 22.86952758 C28.47614424 22.87735082 28.47614424 22.87735082 27.1605978 22.88533211 C26.41515178 22.88565681 25.66970575 22.88598152 24.90167046 22.88631606 C22.82812191 22.9843039 22.82812191 22.9843039 21.0782156 25.13701439 Z " fill="#FCFDFC" transform="translate(160.92178440093994,303.8629856109619)"/>
<path d="M0 0 C0.33 0 0.66 0 1 0 C1 98.34 1 196.68 1 298 C-95.69 298 -192.38 298 -292 298 C-292 297.67 -292 297.34 -292 297 C-291.03682861 296.89510254 -291.03682861 296.89510254 -290.05419922 296.78808594 C-274.90348876 295.11453916 -259.94616247 292.99730994 -245 290 C-243.80769775 289.76627686 -243.80769775 289.76627686 -242.59130859 289.52783203 C-192.35124173 279.57669743 -142.80966124 253.64944573 -105.20703125 219.0234375 C-103.27869483 217.25551137 -101.31152022 215.56153954 -99.3125 213.875 C-88.94355 204.8127063 -79.4492874 194.86336951 -71 184 C-69.6875 182.39583333 -68.375 180.79166667 -67.0625 179.1875 C-26.37701586 127.93019715 -3.62999135 65.21467227 0 0 Z " fill="#FDFEFE" transform="translate(625,328)"/>
<path d="M0 0 C99 0 198 0 300 0 C300 97.68 300 195.36 300 296 C299.67 296 299.34 296 299 296 C298.97421875 295.14664062 298.9484375 294.29328125 298.921875 293.4140625 C295.9578922 228.07171446 269.35418436 162.71081335 227 113 C226.11241755 111.92779773 225.22574611 110.85484086 224.33984375 109.78125 C214.16901541 97.56093271 203.15245331 85.90233665 190.62890625 76.06640625 C187.74986124 73.80338276 184.97425916 71.43803778 182.1875 69.0625 C152.06466051 44.02433418 116.69537283 26.49917054 79.49072266 14.79150391 C77.4786024 14.15209067 75.47756138 13.47787621 73.48046875 12.79296875 C50.15698237 4.95602754 24.47329404 2.26963422 0 1 C0 0.67 0 0.34 0 0 Z " fill="#FDFEFE" transform="translate(326,0)"/>
<path d="M0 0 C0.33 0 0.66 0 1 0 C1.05945801 0.65556885 1.11891602 1.3111377 1.18017578 1.98657227 C5.24318682 45.35154547 15.67219689 86.51418981 36.06738281 125.21142578 C36.97375283 126.94966315 37.84297204 128.70711461 38.7109375 130.46484375 C47.89585443 148.61407917 59.85038839 165.51673818 73 181 C73.6290625 181.74636719 74.258125 182.49273438 74.90625 183.26171875 C76.5755013 185.20261708 78.27871619 187.10511031 80 189 C80.80695313 189.89847656 81.61390625 190.79695312 82.4453125 191.72265625 C92.3155381 202.6549475 102.4304811 212.84914217 114 222 C115.073822 222.89579801 116.14533323 223.79437132 117.21484375 224.6953125 C159.49866839 259.98365145 212.01449168 281.24409738 266 290 C267.29550781 290.21527344 268.59101563 290.43054688 269.92578125 290.65234375 C278.590739 291.99673697 287.25124595 292.56824331 296 293 C296 293.33 296 293.66 296 294 C198.32 294 100.64 294 0 294 C0 196.98 0 99.96 0 0 Z " fill="#FDFEFE" transform="translate(0,332)"/>
<path d="M0 0 C99.33 0 198.66 0 301 0 C301 0.33 301 0.66 301 1 C299.78570312 1.02578125 298.57140625 1.0515625 297.3203125 1.078125 C227.75709391 3.13302579 158.38799979 32.02724032 106.7434082 78.4453125 C104.87948613 80.10746847 102.98885425 81.73616533 101.09765625 83.3671875 C90.1392757 92.94786781 79.85006701 103.44002876 71 115 C70.25234375 115.93070312 69.5046875 116.86140625 68.734375 117.8203125 C27.28652077 170.09808993 3.09742597 234.31631922 1 301 C0.67 301 0.34 301 0 301 C0 201.67 0 102.34 0 0 Z " fill="#FEFEFE" transform="translate(0,0)"/>
<path d="M0 0 C1.20156738 -0.00990463 2.40313477 -0.01980927 3.64111328 -0.03001404 C4.9745341 -0.0257758 6.30795393 -0.02121792 7.64137268 -0.01637268 C9.04417974 -0.02207427 10.44698215 -0.02903771 11.84977722 -0.03717041 C15.66179672 -0.05514103 19.47358654 -0.05392613 23.28563571 -0.04822803 C26.4666463 -0.04514163 29.64761241 -0.05122252 32.82861668 -0.05726677 C40.33248299 -0.07132334 47.83623549 -0.06974148 55.34010315 -0.05836487 C63.08426839 -0.04688346 70.82808732 -0.06095692 78.57220691 -0.08776134 C85.21858425 -0.10990579 91.86485277 -0.11655855 98.51126438 -0.11068493 C102.48195342 -0.10731099 106.45242048 -0.10975912 110.42307854 -0.12693596 C114.15701802 -0.14238313 117.89044392 -0.13847497 121.62436295 -0.11963081 C123.64891604 -0.11417698 125.67349207 -0.12847607 127.69799805 -0.14332581 C128.90238525 -0.13349167 130.10677246 -0.12365753 131.34765625 -0.11352539 C132.3946038 -0.11331611 133.44155134 -0.11310682 134.52022457 -0.1128912 C137.95810752 0.52047095 139.1409016 1.63367922 141.23731995 4.38768005 C141.62707079 7.07825068 141.77513674 9.35852168 141.73902893 12.04612732 C141.74713341 13.19557327 141.74713341 13.19557327 141.75540161 14.36824036 C141.76789336 16.89725041 141.75139736 19.42512313 141.7334137 21.9540863 C141.73356866 23.71238261 141.73505718 25.47067926 141.73782349 27.22897339 C141.73920762 30.91183086 141.72664596 34.59429895 141.70387268 38.27708435 C141.67546698 43.00077949 141.67823076 47.72382865 141.69096279 52.44757175 C141.6979126 56.0772454 141.69013906 59.70676934 141.67770576 63.33642387 C141.67318593 65.07836776 141.6728591 66.82032767 141.67677116 68.56227303 C141.67967713 70.99472723 141.66320759 73.42628616 141.64137268 75.85862732 C141.64812515 76.94108482 141.64812515 76.94108482 141.65501404 78.04541016 C141.58269636 82.88668729 141.58269636 82.88668729 140.07605076 85.07218266 C137.47833186 86.93068877 135.60921438 86.76522324 132.4299469 86.76863098 C131.2185202 86.77709045 130.00709351 86.78554993 128.75895691 86.79426575 C127.41450367 86.78843269 126.07005174 86.78228818 124.7256012 86.77586365 C123.31132095 86.77992823 121.89704387 86.78526947 120.48277283 86.79179382 C116.63981741 86.80548693 112.79710323 86.80016067 108.95414352 86.79065657 C104.93565462 86.78307024 100.9171866 86.79010271 96.8986969 86.79481506 C90.14987981 86.80027562 83.40116116 86.79307316 76.65235901 86.77879333 C68.84574018 86.7624662 61.03935639 86.7677545 53.23274326 86.78427255 C46.53458167 86.7978789 39.83649091 86.79981127 33.13831997 86.79195654 C29.13584985 86.78727532 25.13349027 86.78666744 21.13102722 86.79656601 C17.36842959 86.80522108 13.60613549 86.79924081 9.84357071 86.78188324 C8.46125925 86.77791054 7.07892233 86.77906583 5.69662094 86.78567123 C3.81265413 86.79384503 1.92863161 86.78178665 0.04469299 86.76863098 C-1.53817253 86.76693437 -1.53817253 86.76693437 -3.15301514 86.76520348 C-5.76268005 86.38768005 -5.76268005 86.38768005 -7.60183144 85.07497597 C-9.54822941 82.24588241 -9.17833204 79.06452397 -9.15086365 75.7509613 C-9.15612061 74.97505646 -9.16137756 74.19915161 -9.16679382 73.3997345 C-9.1800059 70.83301203 -9.17125171 68.26690891 -9.16111755 65.70018005 C-9.16313795 63.91803366 -9.1660491 62.13588807 -9.16981506 60.35374451 C-9.17424004 56.61790601 -9.16780181 52.88228262 -9.15379333 49.14646912 C-9.13670129 44.35438922 -9.14654155 39.56281335 -9.16451073 34.77075195 C-9.1753439 31.09048149 -9.17190438 27.41033081 -9.16412735 23.73005676 C-9.16212405 21.96298666 -9.16458917 20.19590573 -9.17156601 18.42884827 C-9.17917291 15.96040481 -9.16758758 13.4927811 -9.15086365 11.0243988 C-9.15693634 10.29183868 -9.16300903 9.55927856 -9.16926575 8.80451965 C-9.10745229 3.88747966 -9.10745229 3.88747966 -7.59903812 1.70080471 C-5.01383688 -0.14779527 -3.16390111 0.00734585 0 0 Z " fill="#FCFDFB" transform="translate(344.76268005371094,180.61231994628906)"/>
<path d="M0 0 C0.9528962 0.0015486 1.9057924 0.0030972 2.88756424 0.00469273 C3.89156142 0.00242718 4.89555859 0.00016162 5.92997992 -0.00217259 C9.32182304 -0.0085442 12.71362653 -0.00768121 16.10547501 -0.00685817 C18.52599251 -0.00984769 20.94650953 -0.01324973 23.36702591 -0.01703578 C29.27581153 -0.02497859 35.18458772 -0.02809134 41.09337758 -0.02864816 C45.89406335 -0.02912257 50.69474581 -0.03117352 55.49543053 -0.03434879 C69.09242472 -0.0431597 82.689411 -0.04776748 96.28640806 -0.04701831 C97.38697315 -0.04695838 97.38697315 -0.04695838 98.50977188 -0.04689723 C99.24437299 -0.04685635 99.97897411 -0.04681547 100.73583586 -0.04677335 C112.64577646 -0.04636675 124.55568547 -0.05593865 136.46561693 -0.0700356 C148.68109456 -0.08438065 160.89655676 -0.09130682 173.11204302 -0.09044182 C179.97556383 -0.0901092 186.83905153 -0.09288453 193.70256478 -0.10361987 C200.154719 -0.11364675 206.60682121 -0.11340871 213.05897957 -0.10610324 C215.43343828 -0.10505222 217.80790127 -0.10745063 220.1823526 -0.1134637 C223.41124104 -0.1211139 226.63988277 -0.11658544 229.86876541 -0.10883266 C230.81943089 -0.11397622 231.77009637 -0.11911978 232.74956989 -0.12441921 C234.03999096 -0.11752102 234.03999096 -0.11752102 235.35648113 -0.11048347 C236.10246923 -0.11070084 236.84845733 -0.1109182 237.61705112 -0.11114216 C239.44165665 0.1384055 239.44165665 0.1384055 241.44165665 2.1384055 C241.74450262 3.56570735 241.98769184 5.00615479 242.19165665 6.4509055 C243.02840423 10.43024704 244.15932231 12.68571613 247.58838516 15.15354222 C249.72696683 16.29002469 251.85011647 17.03536169 254.1565004 17.771218 C254.96079483 18.0304807 255.76508927 18.28974339 256.59375626 18.55686253 C257.20356339 18.74877171 257.81337052 18.94068089 258.44165665 19.1384055 C258.48793116 29.27378152 258.52350092 39.40913255 258.54528099 49.54459256 C258.55573262 54.25054333 258.56991687 58.95642201 258.59253556 63.66233128 C258.61421491 68.20104626 258.62621488 72.73969174 258.63141114 77.27845448 C258.63511574 79.01286859 258.64234959 80.74727876 258.65311676 82.48166341 C258.6675666 84.90492636 258.66963735 87.32789959 258.66870743 89.75119847 C258.67589798 90.47336552 258.68308853 91.19553258 258.69049698 91.93958348 C258.66976097 96.91030118 258.66976097 96.91030118 256.44165665 99.1384055 C255.0143548 99.44125147 253.57390736 99.6844407 252.12915665 99.8884055 C248.78085118 100.58394722 246.75573688 101.26752355 244.44165665 103.8259055 C242.26807753 107.42589592 241.83977842 109.99793909 241.44165665 114.1384055 C239.06080846 116.51925369 238.59411823 116.38867874 235.35927445 116.39008778 C234.06977843 116.39791103 234.06977843 116.39791103 232.75423199 116.40589231 C231.80424863 116.40143087 230.85426527 116.39696943 229.87549454 116.39237279 C228.87064294 116.39549277 227.86579134 116.39861275 226.8304897 116.40182728 C223.44170555 116.40984558 220.05309858 116.40346873 216.6643129 116.39719456 C214.24364736 116.39990272 211.82298264 116.40346267 209.40231949 116.40781468 C203.49699889 116.4160105 197.59172481 116.41477935 191.68640548 116.4089894 C186.88860125 116.40447939 182.09081127 116.40385713 177.29300553 116.40603703 C176.61111509 116.4063435 175.92922465 116.40664996 175.22667086 116.40696572 C173.84158339 116.40760514 172.45649592 116.40825357 171.07140845 116.4089109 C158.07217858 116.41461903 145.07297688 116.40804875 132.07375163 116.39731017 C120.91089075 116.38837421 109.74807146 116.38992612 98.58521134 116.39914769 C85.63366723 116.40984181 72.68214784 116.41406966 59.73059994 116.40792316 C58.35050255 116.40728604 56.97040517 116.4066573 55.59030777 116.40603703 C54.57165818 116.40557421 54.57165818 116.40557421 53.53242981 116.40510203 C48.73834161 116.40337251 43.94426904 116.40629571 39.15018326 116.41099614 C32.7021132 116.41717904 26.25410338 116.41280035 19.80604035 116.40120763 C17.43319571 116.39855297 15.06034449 116.39933976 12.68750244 116.40373296 C9.46085021 116.40915815 6.23445443 116.40239122 3.00781876 116.39237279 C1.58284372 116.39906495 1.58284372 116.39906495 0.12908131 116.40589231 C-0.7305827 116.40067682 -1.59024671 116.39546132 -2.47596115 116.39008778 C-3.22140717 116.38976308 -3.9668532 116.38943837 -4.73488849 116.38910383 C-6.55834335 116.1384055 -6.55834335 116.1384055 -8.55834335 114.1384055 C-9.01733416 112.71385477 -9.42876878 111.27364184 -9.80834335 109.8259055 C-11.34308772 105.07659707 -13.23634833 102.82945901 -17.55834335 100.1384055 C-20.20499171 99.3046628 -22.84371389 98.7365442 -25.55834335 98.1384055 C-27.03328712 95.18851797 -26.70569977 92.20051999 -26.70360702 88.9665305 C-26.70864494 87.85900426 -26.70864494 87.85900426 -26.71378464 86.72910374 C-26.72330374 84.28218734 -26.7252381 81.83533928 -26.7263121 79.3884055 C-26.72952357 77.69211615 -26.73288755 75.99582708 -26.73639816 74.29953831 C-26.74239151 70.74191459 -26.7442378 67.18431517 -26.74364609 63.62668675 C-26.74354435 59.05991137 -26.75720751 54.49329106 -26.77441829 49.92655247 C-26.7855155 46.42306613 -26.78756601 42.91961758 -26.78703636 39.41611546 C-26.7882195 37.7319466 -26.79265989 36.04777686 -26.80036873 34.36362523 C-26.81012459 32.01239845 -26.80730844 29.66151232 -26.80126327 27.3102805 C-26.80688278 26.60995702 -26.81250229 25.90963353 -26.81829208 25.18808812 C-26.78666051 20.36672266 -26.78666051 20.36672266 -24.55834335 18.1384055 C-22.77766901 17.54202092 -20.98388632 16.98431032 -19.18334335 16.4509055 C-15.43293074 15.13213296 -13.01633482 14.27023553 -10.99584335 10.7634055 C-9.73304233 7.57895074 -8.571074 4.41030453 -7.55834335 1.1384055 C-5.60197273 -0.81796512 -2.60498649 0.00979352 0 0 Z M-1.55834335 8.1384055 C-2.54834335 10.7784055 -3.53834335 13.4184055 -4.55834335 16.1384055 C-8.48178695 21.0707346 -11.47137076 22.09491921 -17.55834335 25.1384055 C-17.55834335 46.9184055 -17.55834335 68.6984055 -17.55834335 91.1384055 C-14.58834335 92.7884055 -11.61834335 94.4384055 -8.55834335 96.1384055 C-4.46490179 100.23184706 -3.45200653 102.45741596 -1.55834335 108.1384055 C75.99165665 108.1384055 153.54165665 108.1384055 233.44165665 108.1384055 C234.76165665 105.4984055 236.08165665 102.8584055 237.44165665 100.1384055 C241.45794948 95.22960315 244.27903708 94.21971529 250.44165665 91.1384055 C250.44165665 69.3584055 250.44165665 47.5784055 250.44165665 25.1384055 C248.13165665 24.1484055 245.82165665 23.1584055 243.44165665 22.1384055 C237.19846122 17.97627522 236.83749893 15.77905063 233.44165665 8.1384055 C155.89165665 8.1384055 78.34165665 8.1384055 -1.55834335 8.1384055 Z " fill="#4960AB" transform="translate(190.5583433508873,326.8615944981575)"/>
<path d="M0 0 C2.54148954 1.5217069 4.31285469 3.10478258 6.31640625 5.2734375 C11.50044194 10.58978036 18.94736958 10.07552322 25.875 10.1875 C30.82558274 10.1611951 35.27529885 9.79476627 40.03515625 8.4375 C42.39280992 7.91253537 44.590953 7.9722899 47 8 C47.11771717 11.79139846 47.18775198 15.58231735 47.25 19.375 C47.28351563 20.43589844 47.31703125 21.49679688 47.3515625 22.58984375 C47.47904638 32.97977969 44.67950946 40.93941805 38.046875 48.9609375 C30.86796316 56.11244891 21.21983752 60.03307547 11.1875 60.4375 C0.64354906 60.1155473 -8.54515031 56.52880653 -16 49 C-22.30111688 41.19269509 -26.15689294 32.8286922 -26.09765625 22.69921875 C-26.09443359 21.72275391 -26.09121094 20.74628906 -26.08789062 19.74023438 C-26.07951172 18.73283203 -26.07113281 17.72542969 -26.0625 16.6875 C-26.05798828 15.66076172 -26.05347656 14.63402344 -26.04882812 13.57617188 C-26.03708184 11.05072118 -26.02065565 8.52539095 -26 6 C-24.3970947 5.18501438 -22.79262722 4.37310073 -21.1875 3.5625 C-20.29417969 3.11003906 -19.40085938 2.65757812 -18.48046875 2.19140625 C-12.51359826 -0.67457091 -6.50759791 -0.96921671 0 0 Z " fill="#FBFCFB" transform="translate(235,165)"/>
<path d="M0 0 C0.77725433 -0.0066568 1.55450867 -0.0133136 2.35531616 -0.02017212 C4.00459425 -0.03031015 5.65391344 -0.03498878 7.30322266 -0.03466797 C9.80572133 -0.03901007 12.30641105 -0.07522712 14.80859375 -0.11328125 C16.4140565 -0.11915575 18.0195276 -0.1231209 19.625 -0.125 C20.73483749 -0.14655655 20.73483749 -0.14655655 21.86709595 -0.16854858 C28.39255691 -0.11228747 33.50419982 2.00644549 38.453125 6.265625 C43.96402071 12.83123759 45.72568167 17.98142662 45.515625 26.59375 C44.69722014 33.95939375 40.73251519 38.25448103 35.30859375 42.98828125 C32.93633217 44.51235992 30.98533021 44.95476007 28.2109375 45.3359375 C28.46488281 46.15835938 28.71882813 46.98078125 28.98046875 47.828125 C29.69716083 50.15267685 30.41052118 52.47825773 31.12109375 54.8046875 C31.77857134 56.93500916 32.44911936 59.06144543 33.14453125 61.1796875 C34.72995764 66.09526788 35.65117321 70.16316788 35.2109375 75.3359375 C34.2109375 76.3359375 34.2109375 76.3359375 31.6484375 76.3984375 C30.8440625 76.3778125 30.0396875 76.3571875 29.2109375 76.3359375 C24.91592661 67.87385221 19.2109375 56.06420772 19.2109375 46.3359375 C12.6109375 46.3359375 6.0109375 46.3359375 -0.7890625 46.3359375 C-0.76585937 48.33398438 -0.74265625 50.33203125 -0.71875 52.390625 C-0.70484514 54.32339989 -0.69101044 56.25617602 -0.67919922 58.18896484 C-0.66418143 60.1950511 -0.63877269 62.20105074 -0.61328125 64.20703125 C-0.60683594 65.46386719 -0.60039062 66.72070312 -0.59375 68.015625 C-0.58327637 69.17819824 -0.57280273 70.34077148 -0.56201172 71.53857422 C-0.7890625 74.3359375 -0.7890625 74.3359375 -2.7890625 76.3359375 C-5.2890625 76.5859375 -5.2890625 76.5859375 -7.7890625 76.3359375 C-10.64590856 73.47909144 -10.04283299 71.53238829 -10.04785156 67.53125 C-10.0513562 66.83191345 -10.05486084 66.1325769 -10.05847168 65.41204834 C-10.06729126 63.09491112 -10.0614392 60.77807795 -10.0546875 58.4609375 C-10.05603409 56.85432883 -10.05797457 55.24772055 -10.06048584 53.64111328 C-10.0634374 50.27177048 -10.05913847 46.90253363 -10.04980469 43.53320312 C-10.03841008 39.20854256 -10.04496939 34.88413021 -10.05694962 30.55947876 C-10.06416738 27.2412732 -10.06188069 23.92312675 -10.05669403 20.60491943 C-10.0553573 19.0100705 -10.05700608 17.41521625 -10.06165314 15.82037354 C-10.06671706 13.59364552 -10.05901038 11.36732274 -10.04785156 9.140625 C-10.04626038 7.87202637 -10.04466919 6.60342773 -10.04302979 5.29638672 C-9.50826577 -0.93725757 -5.07187181 0.01501016 0 0 Z " fill="#4760B0" transform="translate(338.7890625,346.6640625)"/>
<path d="M0 0 C80.52 0 161.04 0 244 0 C243.67 1.32 243.34 2.64 243 4 C243.66 4 244.32 4 245 4 C244.814375 4.7425 244.62875 5.485 244.4375 6.25 C243.99897213 9.00646092 244.2992106 10.37203973 245 13 C244.67 13.99 244.34 14.98 244 16 C243.01 13.03 242.02 10.06 241 7 C163.45 7 85.9 7 6 7 C5.67 8.98 5.34 10.96 5 13 C2.58643535 18.24147517 -0.99311299 20.98123347 -6.1328125 23.37109375 C-8 24 -8 24 -11 24 C-11 45.45 -11 66.9 -11 89 C-11.33 89 -11.66 89 -12 89 C-12 67.55 -12 46.1 -12 24 C-14.33075929 24.95865509 -14.33075929 24.95865509 -16 28 C-16.32992609 30.97250877 -16.32992609 30.97250877 -16.31884766 34.39916992 C-16.33391609 35.36543053 -16.33391609 35.36543053 -16.34928894 36.35121155 C-16.38014705 38.47762165 -16.39716293 40.6039057 -16.4140625 42.73046875 C-16.43277209 44.20592841 -16.45234534 45.68137735 -16.4727478 47.15681458 C-16.52409736 51.03817425 -16.56370781 54.91956863 -16.60089111 58.80108643 C-16.64091316 62.76266077 -16.69201368 66.7240904 -16.7421875 70.68554688 C-16.83898018 78.45693201 -16.9233741 86.22838709 -17 94 C-17.33 94 -17.66 94 -18 94 C-18 68.92 -18 43.84 -18 18 C-14.04 16.35 -10.08 14.7 -6 13 C-2.73467858 8.72398385 -1.72633645 5.17900934 0 0 Z " fill="#3E59AE" transform="translate(183,328)"/>
<path d="M0 0 C13.1153976 2.22845694 22.84747628 11.42481113 30.37890625 21.921875 C35.92731011 30.4916869 37.04767825 37.5244607 38 48 C19.19 48 0.38 48 -19 48 C-21.5 23 -21.5 23 -20 20 C-19.23429687 19.71253906 -18.46859375 19.42507813 -17.6796875 19.12890625 C-14.60659998 17.83426734 -13.27226183 16.46342834 -11.125 13.9375 C-10.44695312 13.1434375 -9.76890625 12.349375 -9.0703125 11.53125 C-5.97231004 7.7435036 -2.95215745 3.90238313 0 0 Z " fill="#FCFDFB" transform="translate(278,247)"/>
<path d="M0 0 C3.03234869 1.31418822 4.28219592 2.92536277 6.25390625 5.56640625 C6.9396875 6.46359375 7.62546875 7.36078125 8.33203125 8.28515625 C9.5692112 9.9801902 10.79087917 11.68679251 11.98828125 13.41015625 C12.4884375 14.12171875 12.98859375 14.83328125 13.50390625 15.56640625 C14.14392578 16.52740234 14.14392578 16.52740234 14.796875 17.5078125 C16.81672253 19.49650557 18.55438984 19.66503701 21.31640625 20.00390625 C21.3440087 22.42065449 21.36352639 24.83707166 21.37890625 27.25390625 C21.38728516 27.91648437 21.39566406 28.5790625 21.40429688 29.26171875 C21.43425627 35.61311141 20.85095248 41.58935146 20.31640625 48.00390625 C1.50640625 48.00390625 -17.30359375 48.00390625 -36.68359375 48.00390625 C-35.52066396 34.04874872 -32.89962672 25.36441391 -23.68359375 15.00390625 C-23.18472656 14.400625 -22.68585938 13.79734375 -22.171875 13.17578125 C-18.50918793 9.07947631 -14.24875684 6.28422958 -9.55859375 3.50390625 C-8.96038818 3.14095459 -8.36218262 2.77800293 -7.74584961 2.40405273 C-5.07949331 0.89624102 -3.08601576 0.00449202 0 0 Z " fill="#FCFDFA" transform="translate(212.68359375,246.99609375)"/>
<path d="M0 0 C6.30704249 4.30546867 10.7318891 10.10299849 12.36328125 17.61328125 C13.13662871 25.73342954 11.36608243 32.5386298 6.17578125 38.92578125 C0.28827203 45.03270075 -4.48614122 46.84373742 -13.01171875 47.23828125 C-20.2285753 47.00849079 -25.33989834 45.63340209 -30.63671875 40.61328125 C-36.66537697 32.75625947 -38.75766494 25.45414606 -37.63671875 15.61328125 C-35.36000243 8.17671721 -31.36730313 3.40392636 -24.63671875 -0.38671875 C-16.09005113 -4.82895903 -8.42659778 -4.6523207 0 0 Z " fill="#445DB0" transform="translate(423.63671875,202.38671875)"/>
<path d="M0 0 C7.30802506 5.81320175 14.13988453 12.60349784 15.5625 22.25 C15.624375 23.219375 15.68625 24.18875 15.75 25.1875 C8.18865378 27.82517891 1.63896206 28.36981989 -6.3125 28.375 C-7.80233398 28.39336914 -7.80233398 28.39336914 -9.32226562 28.41210938 C-10.27939453 28.41404297 -11.23652344 28.41597656 -12.22265625 28.41796875 C-13.09156494 28.42207764 -13.96047363 28.42618652 -14.85571289 28.43041992 C-20.15151192 27.89311799 -22.61428485 24.82321515 -26.25 21.1875 C-32.20749396 17.30913145 -40.96573301 18.52759502 -47.61328125 19.86328125 C-50.18925765 20.56825015 -52.72405491 21.32146168 -55.25 22.1875 C-54.58529975 13.32482996 -48.9473175 7.23441969 -42.47265625 1.65625 C-29.49835902 -8.8259545 -14.15972755 -7.89677113 0 0 Z " fill="#F9FBFA" transform="translate(266.25,138.8125)"/>
<path d="M0 0 C2.4375 0.1875 2.4375 0.1875 3.4375 1.1875 C3.5259283 3.63553767 3.55285972 6.05594794 3.53515625 8.50390625 C3.53414917 9.15161987 3.53314209 9.7993335 3.53210449 10.4666748 C3.52685843 12.89446779 3.51289725 15.32223561 3.5 17.75 C3.479375 23.174375 3.45875 28.59875 3.4375 34.1875 C19.2775 34.1875 35.1175 34.1875 51.4375 34.1875 C51.39790005 23.37216757 51.39790005 23.37216757 51.34741211 12.55688477 C51.34449284 11.20589273 51.34194431 9.85489981 51.33984375 8.50390625 C51.33472778 7.79649292 51.32961182 7.08907959 51.32434082 6.36022949 C51.32402968 4.63557383 51.37524239 2.91103162 51.4375 1.1875 C52.4375 0.1875 52.4375 0.1875 54.875 0 C57.4375 0.1875 57.4375 0.1875 59.4375 2.1875 C59.69146729 5.14794922 59.69146729 5.14794922 59.69628906 8.9921875 C59.6997937 9.69152405 59.70329834 10.3908606 59.70690918 11.11138916 C59.71572876 13.42852638 59.7098767 15.74535955 59.703125 18.0625 C59.70447159 19.66910867 59.70641207 21.27571695 59.70892334 22.88232422 C59.7118749 26.25166702 59.70757597 29.62090387 59.69824219 32.99023438 C59.68684758 37.31489494 59.69340689 41.63930729 59.70538712 45.96395874 C59.71260488 49.2821643 59.71031819 52.60031075 59.70513153 55.91851807 C59.7037948 57.513367 59.70544358 59.10822125 59.71009064 60.70306396 C59.71515456 62.92979198 59.70744788 65.15611476 59.69628906 67.3828125 C59.69469788 68.65141113 59.69310669 69.92000977 59.69146729 71.22705078 C59.4375 74.1875 59.4375 74.1875 57.4375 76.1875 C54.875 76.375 54.875 76.375 52.4375 76.1875 C51.4375 75.1875 51.4375 75.1875 51.32397461 72.04467773 C51.32422559 70.65347304 51.32978291 69.26226209 51.33984375 67.87109375 C51.34085083 67.22338013 51.34185791 66.5756665 51.34289551 65.9083252 C51.34814157 63.48053221 51.36210275 61.05276439 51.375 58.625 C51.4059375 50.4884375 51.4059375 50.4884375 51.4375 42.1875 C35.5975 42.1875 19.7575 42.1875 3.4375 42.1875 C3.47709995 53.00283243 3.47709995 53.00283243 3.52758789 63.81811523 C3.53050716 65.16910727 3.53305569 66.52010019 3.53515625 67.87109375 C3.54027222 68.57850708 3.54538818 69.28592041 3.55065918 70.01477051 C3.55097032 71.73942617 3.49975761 73.46396838 3.4375 75.1875 C2.4375 76.1875 2.4375 76.1875 0 76.375 C-2.5625 76.1875 -2.5625 76.1875 -4.5625 74.1875 C-4.81646729 71.22705078 -4.81646729 71.22705078 -4.82128906 67.3828125 C-4.8247937 66.68347595 -4.82829834 65.9841394 -4.83190918 65.26361084 C-4.84072876 62.94647362 -4.8348767 60.62964045 -4.828125 58.3125 C-4.82947159 56.70589133 -4.83141207 55.09928305 -4.83392334 53.49267578 C-4.8368749 50.12333298 -4.83257597 46.75409613 -4.82324219 43.38476562 C-4.81184758 39.06010506 -4.81840689 34.73569271 -4.83038712 30.41104126 C-4.83760488 27.0928357 -4.83531819 23.77468925 -4.83013153 20.45648193 C-4.8287948 18.861633 -4.83044358 17.26677875 -4.83509064 15.67193604 C-4.84015456 13.44520802 -4.83244788 11.21888524 -4.82128906 8.9921875 C-4.81969788 7.72358887 -4.81810669 6.45499023 -4.81646729 5.14794922 C-4.49174098 1.36267533 -3.86341768 0.2826891 0 0 Z " fill="#425BAE" transform="translate(233.5625,346.8125)"/>
<path d="M0 0 C6.435 -0.1546875 6.435 -0.1546875 13 -0.3125 C14.33675781 -0.35802002 15.67351562 -0.40354004 17.05078125 -0.45043945 C24.25794144 -0.53405546 29.57817916 -0.06473855 35 5 C38.17348809 9.46271762 38.77696834 13.67829902 38 19 C36.04614079 24.34740414 33.08763713 27.45618143 28 30 C25.89471067 30.08543895 23.78668843 30.10714725 21.6796875 30.09765625 C20.54772949 30.09515869 19.41577148 30.09266113 18.24951172 30.09008789 C16.80592285 30.08098389 15.36233398 30.07187988 13.875 30.0625 C9.29625 30.041875 4.7175 30.02125 0 30 C0 20.1 0 10.2 0 0 Z " fill="#FAFCFB" transform="translate(338,355)"/>
<path d="M0 0 C4.18472274 2.35288885 7.11780035 4.89469352 8.875 9.4375 C9.73077565 15.07956073 9.68309978 19.7614412 7.1875 24.9375 C0.52316797 32.14218328 0.52316797 32.14218328 -4.26171875 32.67578125 C-10.52013122 32.85787901 -14.0984024 32.25771417 -19.125 28.4375 C-23.37212584 22.96094299 -24.83420067 18.34563988 -24.125 11.4375 C-22.00061983 5.41842285 -18.34828283 2.62101417 -13.1875 -0.875 C-8.51390377 -2.43286541 -4.4338544 -1.94922279 0 0 Z " fill="#F9FAFA" transform="translate(418.125,208.5625)"/>
<path d="M0 0 C6.93 0 13.86 0 21 0 C21 6.27 21 12.54 21 19 C14.07 19 7.14 19 0 19 C0 12.73 0 6.46 0 0 Z " fill="#FDFEF8" transform="translate(400,276)"/>
<path d="M0 0 C6.27 0 12.54 0 19 0 C19.020625 2.949375 19.04125 5.89875 19.0625 8.9375 C19.071604 9.86812256 19.08070801 10.79874512 19.09008789 11.75756836 C19.09258545 12.48596924 19.09508301 13.21437012 19.09765625 13.96484375 C19.10551147 15.08814087 19.10551147 15.08814087 19.11352539 16.23413086 C19 18 19 18 18 19 C16.65732587 19.08631874 15.31025678 19.10706473 13.96484375 19.09765625 C12.87224243 19.09390991 12.87224243 19.09390991 11.75756836 19.09008789 C10.8269458 19.08098389 9.89632324 19.07187988 8.9375 19.0625 C4.5134375 19.0315625 4.5134375 19.0315625 0 19 C0 12.73 0 6.46 0 0 Z " fill="#F6F9F7" transform="translate(175,475)"/>
<path d="M0 0 C6.27 0 12.54 0 19 0 C19.020625 2.949375 19.04125 5.89875 19.0625 8.9375 C19.071604 9.86812256 19.08070801 10.79874512 19.09008789 11.75756836 C19.09258545 12.48596924 19.09508301 13.21437012 19.09765625 13.96484375 C19.10551147 15.08814087 19.10551147 15.08814087 19.11352539 16.23413086 C19 18 19 18 18 19 C15.15664952 19.09986975 12.34302837 19.13877881 9.5 19.125 C8.70207031 19.12886719 7.90414063 19.13273437 7.08203125 19.13671875 C1.12660767 19.12660767 1.12660767 19.12660767 0 18 C-0.08631874 16.65732587 -0.10706473 15.31025678 -0.09765625 13.96484375 C-0.09515869 13.23644287 -0.09266113 12.50804199 -0.09008789 11.75756836 C-0.08098389 10.8269458 -0.07187988 9.89632324 -0.0625 8.9375 C-0.041875 5.988125 -0.02125 3.03875 0 0 Z " fill="#F8FAFA" transform="translate(420,475)"/>
<path d="M0 0 C0.99 0.33 1.98 0.66 3 1 C3 24.76 3 48.52 3 73 C1.515 73.495 1.515 73.495 0 74 C0 49.58 0 25.16 0 0 Z " fill="#4F63B1" transform="translate(290,348)"/>
<path d="M0 0 C2.64 0 5.28 0 8 0 C8.79842959 7.37121605 9.09629275 14.58545826 9 22 C5.7 22 2.4 22 -1 22 C-1.09629275 14.58545826 -0.79842959 7.37121605 0 0 Z " fill="#E6EBF1" transform="translate(242,274)"/>
<path d="M0 0 C1.58927102 0.75851572 3.17491182 1.52495591 4.75 2.3125 C4.15683971 6.2182324 2.26378095 8.53053586 -0.1875 11.5625 C-0.89777344 12.45453125 -1.60804688 13.3465625 -2.33984375 14.265625 C-2.97019531 14.94109375 -3.60054688 15.6165625 -4.25 16.3125 C-4.91 16.3125 -5.57 16.3125 -6.25 16.3125 C-7.9765625 14.34375 -7.9765625 14.34375 -9.875 11.8125 C-10.82246094 10.55953125 -10.82246094 10.55953125 -11.7890625 9.28125 C-12.51222656 8.30671875 -12.51222656 8.30671875 -13.25 7.3125 C-5.01744811 -1.06138325 -5.01744811 -1.06138325 0 0 Z " fill="#F0F4F4" transform="translate(265.25,239.6875)"/>
<path d="M0 0 C2.31848925 0.87821562 4.2346018 1.99311617 6.3125 3.34375 C7.01890625 3.79878906 7.7253125 4.25382813 8.453125 4.72265625 C9.24976563 5.24666016 9.24976563 5.24666016 10.0625 5.78125 C9.46966379 9.17317363 8.29506811 10.9920257 6 13.53125 C5.45214844 14.14484375 4.90429688 14.7584375 4.33984375 15.390625 C3.91832031 15.84953125 3.49679688 16.3084375 3.0625 16.78125 C-1.15564817 12.8112282 -4.54977103 8.47284716 -7.9375 3.78125 C-2.51693925 -0.28417056 -2.51693925 -0.28417056 0 0 Z " fill="#F1F5F4" transform="translate(228.9375,239.21875)"/>
<path d="M0 0 C0.66 0 1.32 0 2 0 C2.17682547 9.22252398 2.34279026 18.44516002 2.49477577 27.66812706 C2.56568761 31.95041934 2.64038191 36.23257685 2.72363281 40.51464844 C2.80379156 44.6447569 2.87412915 48.77492515 2.93757248 52.90532303 C2.96355631 54.48348815 2.99311776 56.06159843 3.02626419 57.63962936 C3.07198161 59.84483992 3.10513376 62.04990024 3.13525391 64.25537109 C3.15746002 65.51223724 3.17966614 66.76910339 3.20254517 68.0640564 C3 71 3 71 1 73 C0 72 0 72 -0.12025452 69.14634705 C-0.11803391 67.86949539 -0.11581329 66.59264374 -0.11352539 65.27709961 C-0.11367142 64.5746965 -0.11381744 63.8722934 -0.1139679 63.14860535 C-0.11326872 60.81648722 -0.10547617 58.484448 -0.09765625 56.15234375 C-0.09579208 54.53951562 -0.09436818 52.92668693 -0.09336853 51.31385803 C-0.08954323 47.06084643 -0.07971285 42.80786876 -0.06866455 38.55487061 C-0.05845069 34.2182257 -0.05387096 29.88157533 -0.04882812 25.54492188 C-0.03809059 17.02993231 -0.02101403 8.51497037 0 0 Z " fill="#586CAE" transform="translate(229,349)"/>
<path d="M0 0 C2.17222127 2.05362298 3.77418077 4.27478814 5 7 C4.3125 10.9375 4.3125 10.9375 3 14 C0.36 14 -2.28 14 -5 14 C-6.3125 10.9375 -6.3125 10.9375 -7 7 C-5.58555365 3.85543686 -3.72934204 0 0 0 Z " fill="#ECF0F2" transform="translate(247,252)"/>
<path d="M0 0 C0.69480469 0.16242188 1.38960937 0.32484375 2.10546875 0.4921875 C9.93322279 1.86547768 18.18414038 1.2260172 26 0 C26 0.66 26 1.32 26 2 C23.5859375 3.796875 23.5859375 3.796875 20.375 5.75 C19.33085937 6.40484375 18.28671875 7.0596875 17.2109375 7.734375 C14 9 14 9 10.875 8.359375 C8.36188307 7.17110776 5.97745552 5.97817128 3.625 4.5 C2.93664062 4.0771875 2.24828125 3.654375 1.5390625 3.21875 C1.03117188 2.8165625 0.52328125 2.414375 0 2 C0 1.34 0 0.68 0 0 Z " fill="#F1F5F3" transform="translate(233,231)"/>
<path d="M0 0 C0.33 0 0.66 0 1 0 C1 21.78 1 43.56 1 66 C-0.485 66.495 -0.485 66.495 -2 67 C-2 66.01 -2 65.02 -2 64 C-1.34 64 -0.68 64 0 64 C0 42.88 0 21.76 0 0 Z " fill="#D8DFFD" transform="translate(440,352)"/>
<path d="M0 0 C0 3 0 3 -1.71484375 4.97265625 C-2.44832031 5.66230469 -3.18179688 6.35195313 -3.9375 7.0625 C-6.86434414 9.73700793 -6.86434414 9.73700793 -9 13 C-9.66 13 -10.32 13 -11 13 C-11.66 14.32 -12.32 15.64 -13 17 C-13.66 17 -14.32 17 -15 17 C-15 17.66 -15 18.32 -15 19 C-17.90548882 21.04169485 -19.40142046 22 -23 22 C-22.5875 21.61779297 -22.175 21.23558594 -21.75 20.84179688 C-10.6943319 10.60811928 -10.6943319 10.60811928 0 0 Z " fill="#E7F0EE" transform="translate(541,527)"/>
<path d="M0 0 C2 2 2 2 2.23046875 4.75 C2.21628906 5.8225 2.20210938 6.895 2.1875 8 C2.18105469 9.0725 2.17460937 10.145 2.16796875 11.25 C2 14 2 14 1 16 C0.34 16 -0.32 16 -1 16 C-1.02692484 13.70839681 -1.04636124 11.41670454 -1.0625 9.125 C-1.07410156 7.84882813 -1.08570313 6.57265625 -1.09765625 5.2578125 C-1 2 -1 2 0 0 Z " fill="#F2F7F3" transform="translate(425,216)"/>
<path d="M0 0 C0.69480469 0.16242188 1.38960937 0.32484375 2.10546875 0.4921875 C9.93322279 1.86547768 18.18414038 1.2260172 26 0 C26 0.66 26 1.32 26 2 C19.65758005 3.15316726 13.43311296 3.09507063 7 3 C6.67 3.66 6.34 4.32 6 5 C4.02 4.01 2.04 3.02 0 2 C0 1.34 0 0.68 0 0 Z " fill="#C7D3E8" transform="translate(233,231)"/>
<path d="M0 0 C0.66 0.33 1.32 0.66 2 1 C2 2.32 2 3.64 2 5 C2.66 5 3.32 5 4 5 C3.67 5.99 3.34 6.98 3 8 C-0.0625 9.1875 -0.0625 9.1875 -3 10 C-2.49287967 6.28111761 -1.88391785 3.26545761 0 0 Z " fill="#EAF1F0" transform="translate(214,151)"/>
<path d="M0 0 C0.58394531 0.21785156 1.16789062 0.43570312 1.76953125 0.66015625 C1.15078125 0.74265625 0.53203125 0.82515625 -0.10546875 0.91015625 C-2.38770178 1.44663746 -2.38770178 1.44663746 -3.23046875 3.53515625 C-3.56046875 4.23640625 -3.89046875 4.93765625 -4.23046875 5.66015625 C-5.54384271 6.68622965 -6.8771098 7.6874295 -8.23046875 8.66015625 C-8.89046875 9.65015625 -9.55046875 10.64015625 -10.23046875 11.66015625 C-10.1552129 8.4994107 -9.80821079 6.34888558 -7.74609375 3.890625 C-2.98364479 -0.45460087 -2.98364479 -0.45460087 0 0 Z " fill="#E1E7EC" transform="translate(442.23046875,426.33984375)"/>
<path d="M0 0 C0.99 0 1.98 0 3 0 C3 5.28 3 10.56 3 16 C2.67 16 2.34 16 2 16 C1.34 10.72 0.68 5.44 0 0 Z " fill="#EAEFE8" transform="translate(231,267)"/>
<path d="M0 0 C2.93200474 2.85276137 5.64315404 5.65079784 8 9 C7.67 9.66 7.34 10.32 7 11 C1.21538462 6.81538462 1.21538462 6.81538462 0.125 2.6875 C0.08375 1.800625 0.0425 0.91375 0 0 Z " fill="#4A62AC" transform="translate(561,123)"/>
<path d="M0 0 C0.33 1.32 0.66 2.64 1 4 C0.34 4 -0.32 4 -1 4 C-1.268125 4.61875 -1.53625 5.2375 -1.8125 5.875 C-3 8 -3 8 -6 10 C-6 6.41087588 -5.33563446 5.89142971 -3 3.3125 C-2.443125 2.68988281 -1.88625 2.06726563 -1.3125 1.42578125 C-0.879375 0.95527344 -0.44625 0.48476563 0 0 Z " fill="#EAF5F3" transform="translate(549,518)"/>
<path d="M0 0 C1.32 0 2.64 0 4 0 C4 0.66 4 1.32 4 2 C4.66 2 5.32 2 6 2 C6 2.66 6 3.32 6 4 C6.66 4 7.32 4 8 4 C7.67 5.32 7.34 6.64 7 8 C5.83035398 6.8572081 4.66435444 5.71068285 3.5 4.5625 C2.8503125 3.92441406 2.200625 3.28632812 1.53125 2.62890625 C0 1 0 1 0 0 Z " fill="#475FA8" transform="translate(88,530)"/>
<path d="M0 0 C0.33 0 0.66 0 1 0 C1.33 3.63 1.66 7.26 2 11 C1.01 11.66 0.02 12.32 -1 13 C-1.33 11.35 -1.66 9.7 -2 8 C-1.34 8 -0.68 8 0 8 C0 5.36 0 2.72 0 0 Z " fill="#4162C4" transform="translate(622,340)"/>
<path d="M0 0 C0.66 0 1.32 0 2 0 C2 0.66 2 1.32 2 2 C2.66 2 3.32 2 4 2 C4.99 3.485 4.99 3.485 6 5 C5.67 5.99 5.34 6.98 5 8 C2.5 5.6875 2.5 5.6875 0 3 C0 2.01 0 1.02 0 0 Z " fill="#4B64B1" transform="translate(82,522)"/>
<path d="M0 0 C2.5 1.375 2.5 1.375 5 3 C5 3.66 5 4.32 5 5 C3.02 5 1.04 5 -1 5 C-0.67 3.35 -0.34 1.7 0 0 Z " fill="#F1F5EF" transform="translate(289,251)"/>
<path d="M0 0 C0.99 0.33 1.98 0.66 3 1 C0.36 3.64 -2.28 6.28 -5 9 C-5 4.61031544 -2.87194899 3.23094261 0 0 Z " fill="#E1E9F3" transform="translate(278,247)"/>
<path d="M0 0 C0.66 0 1.32 0 2 0 C1.75 2.375 1.75 2.375 1 5 C-1.0625 6.3125 -1.0625 6.3125 -3 7 C-1.125 1.125 -1.125 1.125 0 0 Z " fill="#E5EBF0" transform="translate(590,458)"/>
<path d="M0 0 C1.32 0 2.64 0 4 0 C6.17457267 2.87354245 7 4.36436591 7 8 C5.83035398 6.8572081 4.66435444 5.71068285 3.5 4.5625 C2.8503125 3.92441406 2.200625 3.28632812 1.53125 2.62890625 C0 1 0 1 0 0 Z " fill="#5368A2" transform="translate(96,538)"/>
<path d="M0 0 C2.29633824 3.44450737 2.54016485 5.93812283 3 10 C2.01 10 1.02 10 0 10 C0 6.7 0 3.4 0 0 Z " fill="#DEE5F0" transform="translate(12,400)"/>
<path d="M0 0 C0 1.32 0 2.64 0 4 C-1.65 4 -3.3 4 -5 4 C-5.33 3.34 -5.66 2.68 -6 2 C-3 0 -3 0 0 0 Z " fill="#F1F6EC" transform="translate(184,348)"/>
<path d="M0 0 C0.33 0.99 0.66 1.98 1 3 C-0.65 4.65 -2.3 6.3 -4 8 C-4 4.09161134 -2.49432124 2.88405893 0 0 Z " fill="#E8F0F4" transform="translate(189,262)"/>
<path d="M0 0 C2.31 1.98 4.62 3.96 7 6 C6.01 6.66 5.02 7.32 4 8 C3.67 7.01 3.34 6.02 3 5 C2.01 4.67 1.02 4.34 0 4 C0 2.68 0 1.36 0 0 Z " fill="#5266B0" transform="translate(538,96)"/>
<path d="M0 0 C-0.99 0.33 -1.98 0.66 -3 1 C-3.73323796 3.01508358 -3.73323796 3.01508358 -4 5 C-4.66 5 -5.32 5 -6 5 C-6 4.01 -6 3.02 -6 2 C-6.66 1.67 -7.32 1.34 -8 1 C-4.93251126 -0.86240388 -3.40254489 -1.2151946 0 0 Z " fill="#E5EBE7" transform="translate(160,305)"/>
</svg>
